<svg width="28" height="28" viewBox="0 0 28 28" fill="none" xmlns="http://www.w3.org/2000/svg">
<g clip-path="url(#clip0)">
<rect width="28" height="28" fill="white"/>
<rect width="28" height="28" fill="#FAFAFA"/>
<path d="M14.4 10.4C15.3867 10.4 16.28 10.6267 17.08 11.08C17.88 11.52 18.5067 12.1467 18.96 12.96C19.4133 13.7733 19.64 14.7 19.64 15.74C19.64 16.78 19.4133 17.7067 18.96 18.52C18.5067 19.3333 17.88 19.9667 17.08 20.42C16.28 20.8733 15.3867 21.1 14.4 21.1C13.52 21.1 12.7267 20.9133 12.02 20.54C11.3267 20.1667 10.7667 19.6267 10.34 18.92V21H8.98V6.16H10.4V12.48C10.84 11.8 11.4 11.2867 12.08 10.94C12.7733 10.58 13.5467 10.4 14.4 10.4ZM14.3 19.84C15.0333 19.84 15.7 19.6733 16.3 19.34C16.9 18.9933 17.3667 18.5067 17.7 17.88C18.0467 17.2533 18.22 16.54 18.22 15.74C18.22 14.94 18.0467 14.2267 17.7 13.6C17.3667 12.9733 16.9 12.4933 16.3 12.16C15.7 11.8133 15.0333 11.64 14.3 11.64C13.5533 11.64 12.88 11.8133 12.28 12.16C11.6933 12.4933 11.2267 12.9733 10.88 13.6C10.5467 14.2267 10.38 14.94 10.38 15.74C10.38 16.54 10.5467 17.2533 10.88 17.88C11.2267 18.5067 11.6933 18.9933 12.28 19.34C12.88 19.6733 13.5533 19.84 14.3 19.84Z" fill="#3D5AFE"/>
</g>
<defs>
<clipPath id="clip0">
<rect width="28" height="28" fill="white"/>
</clipPath>
</defs>
</svg>
